<svg width="55" height="26" viewBox="0 0 55 26" fill="none" xmlns="http://www.w3.org/2000/svg">
<g clip-path="url(#clip0_11_2)">
<path d="M10.6674 5.0238C10.9955 5.54589 11.1028 6.17693 10.9656 6.77811C10.8285 7.37929 10.4581 7.90136 9.93601 8.22947C9.41393 8.55759 8.78288 8.66486 8.1817 8.5277C7.58052 8.39055 7.05845 8.02019 6.73034 7.4981L5.41799 8.32287C5.06993 8.54161 4.82303 8.88966 4.73159 9.29044C4.64015 9.69123 4.71166 10.1119 4.93041 10.46L11.5285 20.9588C11.7473 21.3068 12.0953 21.5537 12.4961 21.6452C12.8969 21.7366 13.3176 21.6651 13.6657 21.4464L14.978 20.6216C14.6499 20.0995 14.5426 19.4685 14.6798 18.8673C14.8169 18.2661 15.1873 17.744 15.7094 17.4159C16.2315 17.0878 16.8625 16.9805 17.4637 17.1177C18.0649 17.2548 18.5869 17.6252 18.9151 18.1473L20.2274 17.3225C20.5755 17.1038 20.8224 16.7557 20.9138 16.3549C21.0052 15.9542 20.9337 15.5335 20.715 15.1854L14.1169 4.68662C13.8981 4.33856 13.5501 4.09165 13.1493 4.00021C12.7485 3.90877 12.3278 3.98029 11.9797 4.19903L10.6674 5.0238Z" stroke="#F8CA4B" stroke-width="2" stroke-linecap="round" stroke-linejoin="round"/>
<path d="M17.8283 10.5922L16.516 11.417" stroke="black" stroke-width="2" stroke-linecap="round" stroke-linejoin="round"/>
<path d="M9.95421 15.5408L8.64186 16.3656" stroke="black" stroke-width="2" stroke-linecap="round" stroke-linejoin="round"/>
<path d="M13.8913 13.0665L12.5789 13.8912" stroke="black" stroke-width="2" stroke-linecap="round" stroke-linejoin="round"/>
</g>
<rect x="35.0965" y="14.078" width="1.77" height="6.95613" rx="0.885" transform="rotate(-45 35.0965 14.078)" fill="black"/>
<rect width="1.7706" height="10.0992" rx="0.885302" transform="matrix(-0.707107 -0.707107 -0.707107 0.707107 41.4127 14.219)" fill="black"/>
<rect x="27.1" y="9.47501" width="2.325" height="7.75" rx="1.1625" fill="black"/>
<rect x="24" y="8.7" width="2.325" height="7.75" rx="1.1625" transform="rotate(-90 24 8.7)" fill="black"/>
<rect x="46.4564" y="8.7" width="1.55" height="7.64582" rx="0.775" transform="rotate(45 46.4564 8.7)" fill="black"/>
<rect x="41.8454" y="14.9" width="1.55" height="7.75" rx="0.775" transform="rotate(-90 41.8454 14.9)" fill="black"/>
<rect x="45.7204" y="8.7" width="1.55" height="11.625" rx="0.775" fill="black"/>
<rect x="31.75" y="12.575" width="2.325" height="4.65" rx="1.1625" fill="black"/>
<circle cx="32.9125" cy="10.6375" r="1.1625" fill="#F8CA4B"/>
<rect x="50.35" y="12.575" width="1.55" height="3.1" rx="0.775" fill="black"/>
<rect x="53.45" y="12.575" width="1.55" height="3.1" rx="0.775" fill="black"/>
<circle cx="54.225" cy="11.025" r="0.775" fill="#F8CA4B"/>
<path d="M55 14.9C55 15.5166 54.755 16.108 54.319 16.544C53.883 16.98 53.2916 17.225 52.675 17.225C52.0584 17.225 51.467 16.98 51.031 16.544C50.5949 16.108 50.35 15.5166 50.35 14.9L51.895 14.9C51.895 15.1069 51.9771 15.3053 52.1234 15.4516C52.2697 15.5978 52.4681 15.68 52.675 15.68C52.8819 15.68 53.0803 15.5978 53.2266 15.4516C53.3728 15.3053 53.455 15.1069 53.455 14.9H55Z" fill="black"/>
<defs>
<clipPath id="clip0_11_2">
<rect width="18.6" height="18.6" fill="white" transform="translate(15.7482) rotate(57.852)"/>
</clipPath>
</defs>
</svg>
