<svg width="26" height="26" viewBox="0 0 26 26" fill="none" xmlns="http://www.w3.org/2000/svg">
<g clip-path="url(#clip0_11_3)">
<path d="M10.6674 5.0238C10.9955 5.54589 11.1028 6.17693 10.9656 6.77811C10.8285 7.37929 10.4581 7.90136 9.93601 8.22947C9.41393 8.55759 8.78288 8.66486 8.1817 8.5277C7.58052 8.39055 7.05845 8.02019 6.73034 7.4981L5.41799 8.32287C5.06993 8.54161 4.82303 8.88966 4.73159 9.29044C4.64015 9.69123 4.71166 10.1119 4.93041 10.46L11.5285 20.9588C11.7473 21.3068 12.0953 21.5537 12.4961 21.6452C12.8969 21.7366 13.3176 21.6651 13.6657 21.4464L14.978 20.6216C14.6499 20.0995 14.5426 19.4685 14.6798 18.8673C14.8169 18.2661 15.1873 17.744 15.7094 17.4159C16.2315 17.0878 16.8625 16.9805 17.4637 17.1177C18.0649 17.2548 18.5869 17.6252 18.9151 18.1473L20.2274 17.3225C20.5755 17.1038 20.8224 16.7557 20.9138 16.3549C21.0052 15.9542 20.9337 15.5335 20.715 15.1854L14.1169 4.68662C13.8981 4.33856 13.5501 4.09165 13.1493 4.00021C12.7485 3.90877 12.3278 3.98029 11.9797 4.19903L10.6674 5.0238Z" stroke="#F8CA4B" stroke-width="2" stroke-linecap="round" stroke-linejoin="round"/>
<path d="M17.8283 10.5922L16.516 11.417" stroke="black" stroke-width="2" stroke-linecap="round" stroke-linejoin="round"/>
<path d="M9.95421 15.5408L8.64186 16.3656" stroke="black" stroke-width="2" stroke-linecap="round" stroke-linejoin="round"/>
<path d="M13.8913 13.0665L12.5789 13.8912" stroke="black" stroke-width="2" stroke-linecap="round" stroke-linejoin="round"/>
</g>
<defs>
<clipPath id="clip0_11_3">
<rect width="18.6" height="18.6" fill="white" transform="translate(15.7482) rotate(57.852)"/>
</clipPath>
</defs>
</svg>
